<?xml version="1.0" encoding="UTF-8"?>
<svg id="Layer_2" data-name="Layer 2" xmlns="http://www.w3.org/2000/svg" viewBox="0 0 360 360">
  <defs>
    <style>
      .cls-1 {
        fill: #00bfff;
      }

      .cls-2 {
        fill: #fdfdfd;
      }

      .cls-3 {
        fill: #ffa726;
      }
    </style>
  </defs>
  <g id="Layer_2-2" data-name="Layer 2">
    <rect class="cls-1" width="360" height="360"/>
    <g>
      <path class="cls-3" d="M130.37,169.76l3.56.78c.52.11,1.07.03,1.53-.24l3.15-1.84c1.76-1.03,4,.11,4.2,2.14l.36,3.63c.05.53.3,1.02.7,1.38l2.72,2.43c1.52,1.36,1.13,3.84-.74,4.66l-3.34,1.47c-.49.22-.88.61-1.1,1.1l-1.47,3.34c-.82,1.87-3.3,2.26-4.66.74l-2.43-2.72c-.36-.4-.85-.65-1.38-.7l-3.63-.36c-2.03-.2-3.17-2.44-2.14-4.2l1.84-3.15c.27-.46.36-1.01.24-1.53l-.78-3.56c-.43-1.99,1.34-3.77,3.34-3.34Z"/>
      <path class="cls-3" d="M311.53,200.03c0-4.48-3.63-8.11-8.11-8.11s-8.11,3.63-8.11,8.11h16.22Z"/>
      <path class="cls-2" d="M66.33,159.19c-1.98.56-3.75,1.39-5.32,2.51v-2.13h-4.43c-3.02,0-5.64,0-8.11,0v39.29h12.54v-20.75c0-2.79.96-4.8,2.89-6.04,1.92-1.24,4.89-1.58,8.89-1.03v-12.31c-2.33-.25-4.48-.1-6.46.46Z"/>
      <path class="cls-2" d="M81.7,210.97c1.01-2.69,2.06-5.38,3.15-8.09,1.09-2.71,2.14-5.38,3.15-8.02-2.38-5.83-4.8-11.72-7.26-17.67-2.46-5.95-4.88-11.84-7.26-17.67h13.3c1.32,3.24,2.65,6.54,3.99,9.88,1.34,3.34,2.67,6.66,3.99,9.96,1.22-3.29,2.46-6.61,3.72-9.96,1.27-3.34,2.51-6.64,3.72-9.88h13.07c-3.4,8.46-6.8,17.04-10.22,25.73-3.42,8.69-6.83,17.26-10.22,25.73h-13.15Z"/>
      <path class="cls-2" d="M175.45,159.14c-1.98.56-3.75,1.39-5.32,2.51v-2.13h-5.14c0,4.24-3.26,7.72-7.4,8.08v31.22h12.54v-20.75c0-2.79.96-4.8,2.89-6.04,1.92-1.24,4.89-1.58,8.89-1.03v-12.31c-2.33-.25-4.48-.1-6.46.46Z"/>
      <path class="cls-2" d="M188.78,186.88v-15.86h-6.16v-12.33h6.16v-9.66h12.54v9.66h8.82v12.33h-8.82v12.74c0,2.03.9,3.28,2.7,3.76,1.8.48,3.99.32,6.57-.49v11.4c-2.74.81-5.4,1.23-7.98,1.25-2.58.02-4.92-.41-6.99-1.29-2.08-.89-3.74-2.28-4.98-4.18-1.24-1.9-1.86-4.34-1.86-7.33Z"/>
      <path class="cls-2" d="M227.5,179.13c0-3.85.79-7.23,2.36-10.15,1.57-2.91,3.75-5.26,6.54-7.03,2.79-1.77,6.03-2.85,9.73-3.23,3.7-.38,7.65.06,11.86,1.33v11.7c-2.94-1.42-5.75-2.08-8.44-1.98-2.69.1-4.89.93-6.61,2.47-1.72,1.55-2.58,3.84-2.58,6.88s.86,5.33,2.58,6.88c1.72,1.55,3.93,2.36,6.61,2.43s5.5-.57,8.44-1.94v11.7c-4.21,1.27-8.16,1.71-11.86,1.33-3.7-.38-6.94-1.46-9.73-3.23-2.79-1.77-4.97-4.12-6.54-7.03-1.57-2.91-2.36-6.29-2.36-10.15Z"/>
      <path class="cls-2" d="M280.7,200.03c-2.94,0-5.67-.52-8.21-1.56-2.53-1.04-4.74-2.51-6.61-4.41-1.88-1.9-3.33-4.12-4.37-6.65-1.04-2.53-1.56-5.29-1.56-8.28s.52-5.75,1.56-8.28c1.04-2.53,2.49-4.74,4.37-6.61,1.87-1.87,4.08-3.33,6.61-4.37,2.53-1.04,5.27-1.56,8.21-1.56s5.74.52,8.25,1.56c2.51,1.04,4.7,2.5,6.57,4.37,1.87,1.88,3.33,4.08,4.37,6.61,1.04,2.53,1.56,5.29,1.56,8.28s-.52,5.75-1.56,8.28c-1.04,2.53-2.5,4.75-4.37,6.65-1.88,1.9-4.07,3.37-6.57,4.41-2.51,1.04-5.26,1.56-8.25,1.56ZM280.7,188.7c2.48,0,4.47-.9,5.97-2.7,1.49-1.8,2.24-4.09,2.24-6.88s-.75-5.13-2.24-6.88c-1.5-1.75-3.48-2.62-5.97-2.62s-4.47.87-5.97,2.62c-1.5,1.75-2.24,4.04-2.24,6.88s.75,5.08,2.24,6.88c1.49,1.8,3.48,2.7,5.97,2.7Z"/>
      <path class="cls-2" d="M148.78,159.52h-4.43v2.2c-1.27-1.01-2.71-1.81-4.33-2.39-1.62-.58-3.34-.87-5.17-.87-2.53,0-4.94.49-7.22,1.48-2.28.99-4.29,2.38-6.04,4.18-1.75,1.8-3.12,3.96-4.1,6.5-.99,2.53-1.48,5.37-1.48,8.51s.49,5.9,1.48,8.44c.99,2.53,2.36,4.73,4.1,6.57,1.75,1.85,3.76,3.27,6.04,4.26,2.28.99,4.71,1.48,7.3,1.48,1.82,0,3.53-.29,5.13-.87,1.6-.58,3.03-1.41,4.29-2.47v2.28h12.54v-31.18c-4.48,0-8.11-3.63-8.11-8.11ZM145.87,182.69l-3.34,1.47c-.49.22-.88.61-1.1,1.1l-1.47,3.34c-.82,1.87-3.3,2.26-4.66.74l-2.43-2.72c-.36-.4-.85-.65-1.38-.7l-3.63-.36c-2.03-.2-3.17-2.44-2.14-4.2l1.84-3.15c.27-.46.36-1.01.24-1.53l-.78-3.56c-.43-1.99,1.34-3.77,3.34-3.34l3.56.78c.52.11,1.07.03,1.53-.24l3.15-1.84c1.76-1.03,4,.11,4.2,2.14l.36,3.63c.05.53.3,1.02.7,1.38l2.72,2.43c1.52,1.36,1.13,3.84-.74,4.66Z"/>
    </g>
  </g>
</svg>