<?xml version="1.0" encoding="UTF-8"?>
<svg id="Layer_2" data-name="Layer 2" xmlns="http://www.w3.org/2000/svg" viewBox="0 0 301.1 89.8">
  <defs>
    <style>
      .cls-1 {
        fill: #221f21;
      }

      .cls-2 {
        fill: #ffa726;
      }
    </style>
  </defs>
  <g id="Layer_2-2" data-name="Layer 2">
    <g>
      <g>
        <path class="cls-2" d="M106.81,29.74c-.45-.4-.73-.95-.79-1.55l-.41-4.06c-.23-2.27-2.73-3.55-4.71-2.4l-3.52,2.06c-.52.3-1.13.4-1.71.27l-3.99-.87c-2.23-.49-4.22,1.5-3.73,3.73l.87,3.99c.13.58.03,1.2-.27,1.71l-2.06,3.52c-1.15,1.97.12,4.48,2.4,4.71l4.06.41c.6.06,1.15.34,1.55.79l2.72,3.05c1.52,1.71,4.3,1.27,5.22-.83l1.64-3.74c.24-.55.68-.99,1.23-1.23l3.74-1.64c2.09-.92,2.53-3.7.83-5.22l-3.05-2.72Z"/>
        <path class="cls-2" d="M301.1,56.86c0-5.01-4.07-9.08-9.08-9.08s-9.08,4.07-9.08,9.08h18.16Z"/>
        <path class="cls-1" d="M19.99,11.37c-2.21.62-4.2,1.56-5.95,2.81v-2.38h-4.96c-3.38,0-6.31,0-9.08,0v43.99h14.04v-23.23c0-3.12,1.08-5.37,3.23-6.76,2.15-1.39,5.47-1.77,9.95-1.15v-13.78c-2.61-.28-5.02-.11-7.23.51Z"/>
        <path class="cls-1" d="M37.2,69.34c1.13-3.01,2.31-6.03,3.53-9.06,1.22-3.03,2.4-6.03,3.53-8.98-2.67-6.52-5.37-13.12-8.12-19.78-2.75-6.66-5.46-13.26-8.12-19.78h14.89c1.47,3.63,2.96,7.32,4.47,11.06,1.5,3.74,2.99,7.46,4.47,11.15,1.36-3.69,2.75-7.4,4.17-11.15,1.42-3.74,2.81-7.43,4.17-11.06h14.63c-3.8,9.47-7.61,19.07-11.44,28.8-3.83,9.73-7.64,19.33-11.44,28.8h-14.72Z"/>
        <path class="cls-1" d="M142.16,11.32c-2.21.62-4.2,1.56-5.96,2.81v-2.38h-5.75c0,4.75-3.65,8.64-8.29,9.04v34.95h14.04v-23.23c0-3.12,1.08-5.37,3.23-6.76,2.15-1.39,5.47-1.77,9.95-1.15v-13.78c-2.61-.28-5.02-.11-7.23.51Z"/>
        <path class="cls-1" d="M157.07,42.37v-17.75h-6.89v-13.8h6.89V0h14.04v10.81h9.87v13.8h-9.87v14.27c0,2.27,1.01,3.67,3.02,4.21,2.01.54,4.47.36,7.36-.55v12.76c-3.06.91-6.04,1.37-8.93,1.4-2.89.03-5.5-.45-7.83-1.45-2.33-.99-4.18-2.55-5.57-4.68-1.39-2.13-2.08-4.86-2.08-8.21Z"/>
        <path class="cls-1" d="M200.42,33.87c0-4.31.88-8.1,2.64-11.36,1.76-3.26,4.2-5.88,7.32-7.87,3.12-1.98,6.75-3.19,10.89-3.62,4.14-.43,8.56.07,13.27,1.49v13.1c-3.29-1.59-6.44-2.32-9.44-2.21-3.01.11-5.47,1.04-7.4,2.77-1.93,1.73-2.89,4.3-2.89,7.7s.96,5.97,2.89,7.7c1.93,1.73,4.39,2.64,7.4,2.72s6.15-.64,9.44-2.17v13.1c-4.71,1.42-9.13,1.91-13.27,1.49-4.14-.43-7.77-1.63-10.89-3.62-3.12-1.98-5.56-4.61-7.32-7.87-1.76-3.26-2.64-7.05-2.64-11.36Z"/>
        <path class="cls-1" d="M258.61,56.86c-3.29,0-6.35-.58-9.19-1.74-2.84-1.16-5.3-2.81-7.4-4.93-2.1-2.13-3.73-4.61-4.89-7.44-1.16-2.84-1.74-5.93-1.74-9.27s.58-6.44,1.74-9.27c1.16-2.84,2.79-5.3,4.89-7.4,2.1-2.1,4.56-3.73,7.4-4.89,2.84-1.16,5.9-1.74,9.19-1.74s6.42.58,9.23,1.74c2.81,1.16,5.26,2.79,7.36,4.89,2.1,2.1,3.73,4.57,4.89,7.4,1.16,2.84,1.74,5.93,1.74,9.27s-.58,6.44-1.74,9.27c-1.16,2.84-2.79,5.32-4.89,7.44-2.1,2.13-4.55,3.77-7.36,4.93-2.81,1.16-5.88,1.74-9.23,1.74ZM258.61,44.18c2.78,0,5-1.01,6.68-3.02,1.67-2.01,2.51-4.58,2.51-7.7s-.84-5.74-2.51-7.7c-1.67-1.96-3.9-2.94-6.68-2.94s-5.01.98-6.68,2.94c-1.67,1.96-2.51,4.52-2.51,7.7s.84,5.69,2.51,7.7c1.67,2.01,3.9,3.02,6.68,3.02Z"/>
        <path class="cls-1" d="M112.29,11.74h-4.96v2.47c-1.42-1.13-3.04-2.03-4.85-2.68-1.82-.65-3.74-.98-5.79-.98-2.84,0-5.53.55-8.08,1.66-2.55,1.11-4.81,2.67-6.76,4.68-1.96,2.01-3.49,4.44-4.59,7.27-1.11,2.84-1.66,6.01-1.66,9.53s.55,6.61,1.66,9.44c1.11,2.84,2.64,5.29,4.59,7.36,1.96,2.07,4.21,3.66,6.76,4.76,2.55,1.11,5.27,1.66,8.17,1.66,2.04,0,3.96-.33,5.74-.98,1.79-.65,3.39-1.57,4.81-2.76v2.55h14.04V20.82c-5.01,0-9.08-4.07-9.08-9.08ZM109.03,37.68l-3.74,1.64c-.55.24-.99.68-1.23,1.23l-1.64,3.74c-.92,2.09-3.7,2.53-5.22.83l-2.72-3.05c-.4-.45-.95-.73-1.55-.79l-4.06-.41c-2.27-.23-3.55-2.73-2.4-4.71l2.06-3.52c.3-.52.4-1.13.27-1.71l-.87-3.99c-.49-2.23,1.5-4.22,3.73-3.73l3.99.87c.58.13,1.2.03,1.71-.27l3.52-2.06c1.97-1.15,4.48.12,4.71,2.4l.41,4.06c.06.6.34,1.15.79,1.55l3.05,2.72c1.71,1.52,1.27,4.3-.83,5.22Z"/>
      </g>
      <g>
        <path class="cls-1" d="M83.14,68.24c.84-.45,1.8-.68,2.89-.68,1.26,0,2.4.31,3.42.93,1.02.62,1.83,1.5,2.42,2.65.59,1.14.89,2.47.89,3.98s-.3,2.84-.89,4c-.59,1.16-1.4,2.06-2.42,2.7-1.02.64-2.16.96-3.42.96-1.08,0-2.04-.22-2.86-.67s-1.49-1-2.01-1.68v9.12h-3.72v-21.76h3.72v2.13c.48-.67,1.14-1.24,1.98-1.69ZM88.41,72.82c-.36-.65-.84-1.14-1.44-1.48-.59-.34-1.24-.51-1.93-.51s-1.31.17-1.9.52c-.59.35-1.07.85-1.44,1.5-.36.66-.55,1.43-.55,2.31s.18,1.66.55,2.31c.36.66.84,1.16,1.44,1.5.59.35,1.23.52,1.9.52s1.33-.18,1.93-.53c.59-.35,1.07-.86,1.44-1.52.36-.66.55-1.44.55-2.34s-.18-1.65-.55-2.3Z"/>
        <path class="cls-1" d="M101.07,68.25c.77-.44,1.65-.67,2.65-.67v3.91h-.98c-1.17,0-2.05.28-2.65.83-.59.55-.89,1.51-.89,2.87v7.34h-3.72v-14.74h3.72v2.29c.48-.78,1.1-1.39,1.88-1.83Z"/>
        <path class="cls-1" d="M106.47,65.42c-.43-.42-.65-.93-.65-1.56s.22-1.14.65-1.56.98-.62,1.64-.62,1.2.21,1.64.62c.43.42.65.94.65,1.56s-.22,1.14-.65,1.56c-.44.42-.98.62-1.64.62s-1.2-.21-1.64-.62ZM109.94,67.8v14.74h-3.72v-14.74h3.72Z"/>
        <path class="cls-1" d="M126.04,69.25c1.08,1.11,1.62,2.66,1.62,4.64v8.65h-3.72v-8.14c0-1.17-.29-2.07-.88-2.7-.59-.63-1.38-.95-2.39-.95s-1.84.32-2.43.95c-.59.63-.89,1.53-.89,2.7v8.14h-3.72v-14.74h3.72v1.83c.5-.64,1.13-1.14,1.9-1.5s1.62-.54,2.54-.54c1.76,0,3.17.55,4.26,1.66Z"/>
        <path class="cls-1" d="M135.54,70.86v7.13c0,.5.12.86.36,1.08.24.22.64.33,1.21.33h1.73v3.14h-2.34c-3.14,0-4.71-1.53-4.71-4.58v-7.1h-1.76v-3.06h1.76v-3.65h3.75v3.65h3.3v3.06h-3.3Z"/>
        <path class="cls-1" d="M141.77,65.42c-.43-.42-.65-.93-.65-1.56s.22-1.14.65-1.56.98-.62,1.64-.62,1.2.21,1.64.62c.43.42.65.94.65,1.56s-.22,1.14-.65,1.56c-.44.42-.98.62-1.64.62s-1.2-.21-1.64-.62ZM145.25,67.8v14.74h-3.72v-14.74h3.72Z"/>
        <path class="cls-1" d="M161.34,69.25c1.08,1.11,1.62,2.66,1.62,4.64v8.65h-3.72v-8.14c0-1.17-.29-2.07-.88-2.7-.59-.63-1.38-.95-2.39-.95s-1.84.32-2.43.95c-.59.63-.89,1.53-.89,2.7v8.14h-3.72v-14.74h3.72v1.83c.5-.64,1.13-1.14,1.9-1.5s1.62-.54,2.54-.54c1.76,0,3.17.55,4.26,1.66Z"/>
        <path class="cls-1" d="M175.18,68.21c.83.43,1.49,1,1.97,1.69v-2.1h3.75v14.84c0,1.37-.27,2.58-.82,3.66s-1.37,1.92-2.47,2.55c-1.1.63-2.43.94-3.99.94-2.09,0-3.81-.49-5.15-1.46-1.34-.98-2.1-2.31-2.27-3.99h3.7c.19.67.62,1.21,1.26,1.61.65.4,1.43.6,2.35.6,1.08,0,1.96-.32,2.63-.97.67-.65,1.01-1.63,1.01-2.94v-2.29c-.48.69-1.14,1.27-1.98,1.73-.84.46-1.81.69-2.89.69-1.24,0-2.38-.32-3.41-.96-1.03-.64-1.84-1.54-2.43-2.7-.59-1.16-.89-2.5-.89-4s.3-2.81.89-3.96c.59-1.15,1.4-2.04,2.42-2.66s2.16-.93,3.42-.93c1.1,0,2.07.22,2.9.65ZM176.61,72.84c-.35-.65-.83-1.14-1.44-1.49-.6-.35-1.25-.52-1.94-.52s-1.33.17-1.92.51c-.58.34-1.06.83-1.42,1.48-.36.65-.55,1.41-.55,2.3s.18,1.66.55,2.33c.36.67.84,1.17,1.44,1.53.59.36,1.23.53,1.9.53s1.34-.17,1.94-.52c.6-.35,1.08-.84,1.44-1.49.35-.65.53-1.42.53-2.33s-.18-1.68-.53-2.33Z"/>
        <path class="cls-1" d="M193.27,82.13c-.96-.43-1.72-1.02-2.27-1.77-.56-.75-.86-1.57-.92-2.47h3.75c.07.57.35,1.04.84,1.41.49.37,1.09.56,1.82.56s1.26-.14,1.66-.42c.4-.28.6-.65.6-1.09,0-.48-.24-.84-.73-1.08s-1.26-.5-2.33-.78c-1.1-.27-2-.54-2.7-.83-.7-.28-1.3-.72-1.81-1.3-.51-.58-.76-1.37-.76-2.37,0-.82.23-1.56.71-2.24.47-.67,1.14-1.21,2.02-1.6.88-.39,1.91-.59,3.1-.59,1.76,0,3.16.44,4.2,1.32s1.62,2.06,1.73,3.55h-3.57c-.05-.59-.3-1.05-.73-1.4-.44-.35-1.02-.52-1.74-.52-.68,0-1.19.12-1.56.37-.36.25-.55.59-.55,1.04,0,.5.25.87.75,1.13.5.26,1.27.52,2.31.79,1.06.27,1.94.54,2.63.82.69.28,1.29.72,1.79,1.32.51.59.77,1.38.79,2.35,0,.85-.24,1.61-.71,2.29-.47.67-1.14,1.2-2.02,1.58-.88.38-1.9.57-3.07.57s-2.29-.22-3.25-.65Z"/>
        <path class="cls-1" d="M218.97,76.29h-10.78c.09,1.06.46,1.9,1.12,2.5.66.6,1.46.9,2.42.9,1.38,0,2.37-.59,2.95-1.78h4.02c-.43,1.42-1.24,2.58-2.45,3.5-1.21.91-2.69,1.37-4.44,1.37-1.42,0-2.69-.31-3.82-.94-1.13-.63-2-1.52-2.63-2.67-.63-1.15-.94-2.48-.94-3.99s.31-2.86.93-4.02c.62-1.15,1.49-2.04,2.61-2.66s2.4-.93,3.86-.93,2.66.3,3.76.91c1.11.6,1.97,1.46,2.58,2.57.61,1.11.92,2.38.92,3.82,0,.53-.04,1.01-.11,1.44ZM215.22,73.79c-.02-.96-.36-1.72-1.04-2.3s-1.5-.87-2.47-.87c-.92,0-1.7.28-2.33.84-.63.56-1.02,1.33-1.16,2.33h7Z"/>
        <path class="cls-1" d="M227.39,68.25c.77-.44,1.65-.67,2.65-.67v3.91h-.98c-1.17,0-2.05.28-2.65.83-.59.55-.89,1.51-.89,2.87v7.34h-3.72v-14.74h3.72v2.29c.48-.78,1.1-1.39,1.88-1.83Z"/>
        <path class="cls-1" d="M238.68,79.11l3.72-11.31h3.96l-5.45,14.74h-4.52l-5.43-14.74h3.99l3.72,11.31Z"/>
        <path class="cls-1" d="M248.72,65.42c-.44-.42-.65-.93-.65-1.56s.22-1.14.65-1.56c.43-.42.98-.62,1.64-.62s1.2.21,1.64.62.65.94.65,1.56-.22,1.14-.65,1.56c-.43.42-.98.62-1.64.62s-1.2-.21-1.64-.62ZM252.2,67.8v14.74h-3.72v-14.74h3.72Z"/>
        <path class="cls-1" d="M255.84,71.17c.62-1.14,1.48-2.03,2.58-2.66,1.1-.63,2.36-.94,3.78-.94,1.83,0,3.34.46,4.54,1.37,1.2.91,2,2.2,2.41,3.84h-4.02c-.21-.64-.57-1.14-1.08-1.5s-1.13-.55-1.88-.55c-1.06,0-1.91.39-2.53,1.16s-.93,1.87-.93,3.29.31,2.49.93,3.26,1.46,1.16,2.53,1.16c1.51,0,2.49-.67,2.95-2.02h4.02c-.41,1.6-1.21,2.86-2.42,3.8-1.21.94-2.71,1.41-4.52,1.41-1.42,0-2.68-.31-3.78-.94-1.1-.63-1.96-1.52-2.58-2.66-.62-1.14-.93-2.48-.93-4s.31-2.86.93-4Z"/>
        <path class="cls-1" d="M285.48,76.29h-10.78c.09,1.06.46,1.9,1.12,2.5.66.6,1.46.9,2.42.9,1.38,0,2.37-.59,2.95-1.78h4.02c-.43,1.42-1.24,2.58-2.45,3.5-1.21.91-2.69,1.37-4.44,1.37-1.42,0-2.69-.31-3.82-.94-1.13-.63-2-1.52-2.63-2.67-.63-1.15-.94-2.48-.94-3.99s.31-2.86.93-4.02c.62-1.15,1.49-2.04,2.61-2.66s2.4-.93,3.86-.93,2.66.3,3.76.91c1.11.6,1.97,1.46,2.58,2.57.61,1.11.92,2.38.92,3.82,0,.53-.04,1.01-.11,1.44ZM281.73,73.79c-.02-.96-.36-1.72-1.04-2.3s-1.5-.87-2.47-.87c-.92,0-1.7.28-2.33.84-.63.56-1.02,1.33-1.16,2.33h7Z"/>
        <path class="cls-1" d="M290.69,82.13c-.96-.43-1.72-1.02-2.28-1.77s-.86-1.57-.92-2.47h3.75c.07.57.35,1.04.84,1.41.49.37,1.09.56,1.82.56s1.26-.14,1.66-.42c.4-.28.6-.65.6-1.09,0-.48-.24-.84-.73-1.08-.49-.24-1.26-.5-2.33-.78-1.1-.27-2-.54-2.7-.83-.7-.28-1.3-.72-1.81-1.3-.51-.58-.76-1.37-.76-2.37,0-.82.23-1.56.71-2.24.47-.67,1.14-1.21,2.02-1.6.88-.39,1.91-.59,3.1-.59,1.76,0,3.16.44,4.2,1.32s1.62,2.06,1.73,3.55h-3.57c-.05-.59-.3-1.05-.73-1.4-.43-.35-1.02-.52-1.74-.52-.67,0-1.19.12-1.56.37s-.54.59-.54,1.04c0,.5.25.87.74,1.13.5.26,1.27.52,2.32.79,1.06.27,1.94.54,2.63.82.69.28,1.29.72,1.79,1.32.51.59.77,1.38.79,2.35,0,.85-.24,1.61-.71,2.29s-1.14,1.2-2.02,1.58c-.88.38-1.9.57-3.07.57s-2.29-.22-3.25-.65Z"/>
      </g>
    </g>
  </g>
</svg>